<?xml version="1.0" encoding="utf-8"?>
<!-- Generator: Adobe Illustrator 22.0.1, SVG Export Plug-In . SVG Version: 6.00 Build 0)  -->
<svg version="1.1" id="Camada_1" xmlns="http://www.w3.org/2000/svg" xmlns:xlink="http://www.w3.org/1999/xlink" x="0px" y="0px"
	 viewBox="0 0 500 112.5" style="enable-background:new 0 0 500 112.5;" xml:space="preserve">
<style type="text/css">
	.st0{fill:#FF0000;}
</style>
<rect x="150.4" y="65.5" transform="matrix(0.9777 -0.2099 0.2099 0.9777 -6.8631 69.5946)" class="st0" width="348.2" height="3.3"/>
<g>
	<path d="M24.1,75.1V18.9H6.2v-7.2h43.4v7.2H31.7v56.2H24.1z"/>
	<path d="M83.6,35.4v39.6h-6.6v-7.2c-1.6,2.9-3.6,5.1-6.1,6.6c-2.5,1.5-5.2,2.3-8.3,2.3c-5.7,0-10.3-2-13.8-5.9
		c-3.5-3.9-5.2-9.1-5.2-15.5c0-6.5,1.7-11.7,5.1-15.6c3.4-3.9,7.9-5.8,13.6-5.8c3.3,0,6.2,0.7,8.6,2.2c2.4,1.5,4.4,3.7,5.9,6.6v-7.4
		H83.6z M77.1,55.6c0-4.5-1.2-8.1-3.7-10.8c-2.4-2.7-5.6-4.1-9.5-4.1c-4.1,0-7.2,1.3-9.5,3.8c-2.3,2.5-3.4,6-3.4,10.5
		c0,4.8,1.1,8.5,3.4,11.1c2.3,2.6,5.5,3.9,9.8,3.9c4,0,7.2-1.3,9.5-3.8C75.9,63.7,77.1,60.2,77.1,55.6z"/>
	<path d="M93,68.4l5.8-3.9c1.1,2.1,2.5,3.7,4.2,4.7c1.7,1.1,3.7,1.6,5.9,1.6c2.2,0,4-0.5,5.4-1.6c1.4-1.1,2.1-2.5,2.1-4.3
		c0-1.4-0.5-2.5-1.4-3.5c-0.9-0.9-2.5-1.8-4.8-2.6l-1.1-0.4C99.3,55.1,94.5,51,94.5,46c0-3.5,1.3-6.4,3.9-8.6
		c2.6-2.2,6-3.3,10.1-3.3c3.4,0,6.4,0.7,8.8,2.1c2.5,1.4,4.2,3.3,5.3,5.8l-5.5,3.4c-0.8-1.8-2-3.2-3.6-4.2c-1.6-1-3.4-1.5-5.5-1.5
		c-2,0-3.6,0.6-4.9,1.7c-1.3,1.1-1.9,2.5-1.9,4.3c0,2.4,2.6,4.5,7.9,6.1c1,0.3,1.8,0.6,2.3,0.7c4.3,1.4,7.3,3,9,4.7
		c1.7,1.8,2.5,4.1,2.5,7c0,3.8-1.3,6.8-4,9.1c-2.7,2.3-6.2,3.5-10.5,3.5c-3.7,0-6.8-0.7-9.4-2.1C96.6,73.3,94.6,71.2,93,68.4z"/>
	<path d="M133.4,75.1V7.9h6.8v45.5l19.1-18h9.1l-19.8,18.1l21.6,21.5h-9.5l-20.4-20.9v20.9H133.4z"/>
</g>
<g>
	<path d="M186.9,62v46.2h-12V5.3h21.6c7.5,0,13.1,0.4,16.7,1.2c3.6,0.8,6.7,2.1,9.3,3.9c3.3,2.3,5.8,5.6,7.7,9.6
		c1.9,4.1,2.8,8.6,2.8,13.6c0,5-0.9,9.5-2.8,13.6c-1.9,4.1-4.4,7.3-7.7,9.6c-2.6,1.9-5.7,3.2-9.2,4c-3.5,0.8-9.1,1.2-16.7,1.2h-3.4
		H186.9z M186.9,50.9h6.2c10.5,0,17.6-1.2,21.2-3.7c3.6-2.5,5.5-6.8,5.5-12.9c0-6.6-1.9-11.2-5.6-13.9c-3.7-2.7-10.8-4-21.1-4h-6.2
		V50.9z"/>
	<path d="M233.9,76.2c0-4.7,0.9-9.2,2.6-13.4c1.7-4.2,4.3-7.9,7.6-11.2c3.3-3.3,7.1-5.8,11.3-7.5c4.2-1.7,8.7-2.6,13.5-2.6
		c4.7,0,9.1,0.9,13.3,2.6c4.2,1.7,8,4.3,11.4,7.6c3.3,3.2,5.9,7,7.6,11.1c1.7,4.2,2.6,8.6,2.6,13.3c0,4.7-0.9,9.1-2.6,13.3
		c-1.7,4.1-4.3,7.8-7.6,11.1c-3.4,3.4-7.3,6-11.5,7.7c-4.2,1.8-8.7,2.7-13.3,2.7c-4.7,0-9.2-0.9-13.5-2.6s-8-4.3-11.4-7.6
		c-3.3-3.4-5.9-7.1-7.6-11.3C234.7,85.4,233.9,81,233.9,76.2z M245.5,76.2c0,6.8,2.3,12.6,6.8,17.3c4.5,4.7,10.1,7.1,16.5,7.1
		c6.4,0,11.9-2.4,16.4-7.1c4.5-4.7,6.8-10.5,6.8-17.3c0-6.8-2.3-12.6-6.8-17.3s-10-7.1-16.4-7.1c-6.5,0-12,2.4-16.6,7.1
		C247.8,63.7,245.5,69.4,245.5,76.2z"/>
	<path d="M319,12.9c0-2.2,0.8-4.1,2.4-5.7c1.6-1.6,3.5-2.4,5.7-2.4c2.2,0,4.1,0.8,5.7,2.4c1.6,1.6,2.4,3.5,2.4,5.8
		c0,2.2-0.8,4.1-2.3,5.6c-1.5,1.5-3.4,2.3-5.7,2.3c-2.3,0-4.2-0.8-5.7-2.3C319.7,17.1,319,15.2,319,12.9z M321.6,108.2V43.9h11.1
		v64.4H321.6z"/>
	<path d="M355.9,108.2V43.9h10.8v9.9c2.8-4.1,6.1-7.2,10-9.2c3.9-2,8.4-3,13.5-3c7.6,0,13.5,2,17.8,6c4.3,4,6.4,9.6,6.4,16.8v43.8
		h-11.3V70.3c0-6.5-1.4-11.4-4.1-14.5c-2.7-3.2-7-4.7-12.7-4.7c-3.3,0-6.3,0.6-9,1.8c-2.7,1.2-4.9,2.9-6.7,5.1
		c-1.4,1.7-2.3,3.6-2.9,5.8c-0.6,2.2-0.9,5.9-0.9,11.3v33.3H355.9z"/>
	<path d="M437.8,53H426v-9.1h11.8v-26h11.3v26h11.8V53h-11.8v55.3h-11.3V53z"/>
</g>
</svg>
